<?xml version="1.0" encoding="UTF-8" standalone="no"?>
<!DOCTYPE svg PUBLIC "-//W3C//DTD SVG 1.1//EN" "http://www.w3.org/Graphics/SVG/1.1/DTD/svg11.dtd">
<svg xmlns="http://www.w3.org/2000/svg" version="1.1" viewBox="0.00 0.00 1024.00 1024.00">
<clipPath id="clipping-path-0">
<path d="
  M 0.00 0.00
  L 1024.00 0.00
  L 1024.00 1024.00
  L 0.00 1024.00
  L 0.00 0.00
  Z"/>
</clipPath>
<g stroke-width="2.00" fill="none" stroke-linecap="butt" clip-path="url(#clipping-path-0)">
<path stroke="#9eadcf" vector-effect="non-scaling-stroke" d="
  M 684.51 374.22
  A 172.26 172.26 0.0 0 0 512.25 201.96
  A 172.26 172.26 0.0 0 0 339.99 374.22
  A 172.26 172.26 0.0 0 0 512.25 546.48
  A 172.26 172.26 0.0 0 0 684.51 374.22"
/>
<path stroke="#9eadcf" vector-effect="non-scaling-stroke" d="
  M 257.69 636.14
  L 262.12 625.10
  A 0.93 0.93 0.0 0 0 261.69 623.93
  Q 245.99 615.88 228.25 618.80
  C 218.35 620.43 208.98 627.24 208.08 637.99
  C 207.25 647.93 211.91 653.79 220.52 657.21
  C 226.77 659.70 233.11 661.03 240.23 662.77
  C 244.35 663.77 248.76 666.11 247.98 671.02
  C 247.14 676.39 237.69 677.06 233.74 676.74
  Q 222.25 675.83 212.66 669.60
  A 0.52 0.51 27.2 0 0 211.90 669.84
  L 207.16 681.65
  A 1.07 1.06 -62.1 0 0 207.55 682.93
  Q 212.03 685.99 217.38 687.60
  C 228.30 690.87 240.62 691.71 251.33 687.64
  Q 262.24 683.49 264.52 673.78
  C 266.67 664.64 263.62 656.47 254.91 652.10
  C 248.56 648.92 239.52 647.50 232.48 645.59
  C 229.42 644.76 225.63 643.18 225.40 639.77
  C 225.01 633.82 230.44 631.83 235.28 631.69
  Q 246.41 631.38 256.62 636.54
  A 0.78 0.78 0.0 0 0 257.69 636.14"
/>
<path stroke="#fbd095" vector-effect="non-scaling-stroke" d="
  M 743.63 653.81
  C 743.47 676.09 760.33 689.99 781.64 690.15
  C 802.96 690.30 820.02 676.64 820.18 654.37
  C 820.34 632.09 803.48 618.19 782.17 618.03
  C 760.85 617.88 743.79 631.54 743.63 653.81"
/>
<path stroke="#9eadcf" vector-effect="non-scaling-stroke" d="
  M 343.03 688.52
  L 313.36 650.59
  A 0.88 0.88 0.0 0 1 313.41 649.45
  L 339.65 621.23
  A 0.98 0.97 50.8 0 1 341.19 621.39
  L 366.98 663.72
  A 1.75 1.66 -61.8 0 1 367.22 664.60
  L 367.22 688.70
  A 0.46 0.46 0.0 0 0 367.68 689.16
  L 383.81 689.16
  A 0.53 0.52 0.0 0 0 384.34 688.64
  L 384.52 664.29
  A 1.47 1.42 61.8 0 1 384.74 663.52
  L 411.42 620.06
  A 0.54 0.54 0.0 0 0 410.96 619.24
  L 395.49 619.24
  A 0.79 0.78 15.8 0 0 394.82 619.61
  L 377.00 648.66
  A 0.40 0.39 44.7 0 1 376.33 648.66
  L 358.74 619.77
  A 1.16 1.15 74.0 0 0 357.76 619.22
  L 322.23 619.22
  A 1.70 1.70 0.0 0 0 320.91 619.85
  C 313.93 628.25 305.84 636.37 294.24 649.24
  Q 293.89 649.63 293.56 649.80
  A 0.45 0.45 0.0 0 1 292.89 649.40
  L 292.89 619.85
  A 0.64 0.63 90.0 0 0 292.26 619.21
  L 276.11 619.21
  A 0.35 0.34 90.0 0 0 275.77 619.56
  L 275.77 688.60
  A 0.57 0.57 0.0 0 0 276.34 689.17
  L 292.55 689.17
  A 0.36 0.35 -90.0 0 0 292.90 688.81
  L 292.90 672.03
  A 1.82 1.81 66.5 0 1 293.38 670.80
  L 300.53 663.11
  A 0.89 0.89 0.0 0 1 301.88 663.15
  L 322.76 688.84
  A 0.84 0.83 -19.3 0 0 323.41 689.15
  L 342.72 689.15
  A 0.39 0.39 0.0 0 0 343.03 688.52"
/>
<path stroke="#fbd095" vector-effect="non-scaling-stroke" d="
  M 417.06 688.78
  A 0.31 0.31 0.0 0 0 417.37 689.09
  L 433.20 689.09
  A 0.31 0.31 0.0 0 0 433.51 688.78
  L 433.51 650.53
  A 0.31 0.31 0.0 0 1 434.08 650.37
  L 453.27 681.87
  A 0.31 0.31 0.0 0 0 453.52 682.02
  L 461.50 682.42
  A 0.31 0.31 0.0 0 0 461.78 682.27
  L 480.96 649.03
  A 0.31 0.31 0.0 0 1 481.54 649.19
  L 481.54 688.74
  A 0.31 0.31 0.0 0 0 481.85 689.05
  L 497.33 689.05
  A 0.31 0.31 0.0 0 0 497.64 688.74
  L 497.64 619.59
  A 0.31 0.31 0.0 0 0 497.33 619.28
  L 482.62 619.28
  A 0.31 0.31 0.0 0 0 482.35 619.43
  L 457.78 662.00
  A 0.31 0.31 0.0 0 1 457.24 662.00
  L 432.70 619.49
  A 0.31 0.31 0.0 0 0 432.43 619.34
  L 417.37 619.34
  A 0.31 0.31 0.0 0 0 417.06 619.65
  L 417.06 688.78"
/>
<path stroke="#fbd095" vector-effect="non-scaling-stroke" d="
  M 627.26 648.74
  C 619.36 639.85 611.71 629.91 603.63 619.76
  A 1.48 1.46 70.7 0 0 602.48 619.20
  L 588.91 619.20
  A 0.44 0.43 90.0 0 0 588.48 619.64
  L 588.48 688.20
  A 0.80 0.80 0.0 0 0 589.28 689.00
  L 604.79 689.00
  A 0.60 0.60 0.0 0 0 605.39 688.40
  L 605.39 649.12
  A 0.39 0.39 0.0 0 1 606.09 648.88
  C 609.02 652.47 611.83 656.12 614.76 659.42
  C 622.65 668.31 630.31 678.25 638.38 688.40
  A 1.48 1.46 70.7 0 0 639.53 688.96
  L 653.10 688.96
  A 0.44 0.43 -90.0 0 0 653.53 688.52
  L 653.53 619.96
  A 0.80 0.80 0.0 0 0 652.73 619.16
  L 637.22 619.16
  A 0.60 0.60 0.0 0 0 636.62 619.76
  L 636.62 659.04
  A 0.39 0.39 0.0 0 1 635.93 659.28
  C 633.00 655.69 630.18 652.04 627.26 648.74"
/>
<path stroke="#fbd095" vector-effect="non-scaling-stroke" d="
  M 543.35 690.30
  Q 548.36 690.30 553.47 689.18
  C 567.12 686.20 574.31 675.17 575.07 661.99
  Q 575.26 658.72 575.15 619.90
  A 0.65 0.64 89.5 0 0 574.51 619.26
  L 558.80 619.26
  A 0.63 0.62 -89.5 0 0 558.18 619.88
  Q 558.06 628.75 558.21 652.25
  C 558.29 662.97 557.93 675.69 543.34 675.70
  C 528.74 675.72 528.36 663.00 528.41 652.28
  Q 528.52 628.78 528.38 619.91
  A 0.63 0.62 89.4 0 0 527.76 619.29
  L 512.05 619.32
  A 0.65 0.64 -89.7 0 0 511.41 619.97
  Q 511.38 658.79 511.57 662.06
  C 512.36 675.23 519.57 686.25 533.23 689.20
  Q 538.34 690.31 543.35 690.30"
/>
<path stroke="#fbd095" vector-effect="non-scaling-stroke" d="
  M 667.22 620.22
  L 667.34 688.24
  A 0.82 0.82 0.0 0 0 668.16 689.06
  L 701.32 689.00
  A 36.24 33.06 -0.1 0 0 737.50 655.88
  L 737.50 652.34
  A 36.24 33.06 -0.1 0 0 701.20 619.34
  L 668.04 619.40
  A 0.82 0.82 0.0 0 0 667.22 620.22"
/>
<path stroke="#9eadcf" vector-effect="non-scaling-stroke" d="
  M 574.75 356.47
  L 572.19 341.63
  A 0.91 0.90 61.7 0 1 572.41 340.88
  L 583.53 328.59
  A 0.79 0.70 77.1 0 0 583.70 328.28
  Q 583.96 327.30 582.99 326.33
  A 1.05 1.00 64.0 0 1 583.55 324.56
  C 588.26 324.15 588.83 320.92 591.46 318.23
  Q 597.52 312.02 601.02 306.82
  Q 607.42 297.28 609.69 285.26
  C 610.96 278.52 607.98 275.31 601.25 275.79
  Q 595.76 276.17 593.62 276.88
  C 583.58 280.19 575.11 285.04 567.15 292.54
  C 559.23 300.00 552.77 307.37 546.00 314.02
  A 1.63 1.60 25.1 0 1 544.72 314.47
  L 536.41 313.62
  A 0.55 0.55 0.0 0 1 536.05 312.71
  C 539.66 308.51 537.76 302.09 531.57 302.66
  A 3.17 3.09 29.3 0 0 530.56 302.93
  C 526.68 304.76 523.95 309.21 521.21 311.69
  A 1.48 1.43 -62.3 0 1 520.08 312.06
  L 442.45 304.14
  A 1.87 1.87 0.0 0 0 440.89 304.74
  L 431.50 315.12
  A 0.78 0.77 -58.0 0 0 431.78 316.36
  L 512.11 348.61
  A 0.43 0.43 0.0 0 1 512.27 349.30
  L 466.92 399.41
  A 1.40 1.39 -67.2 0 1 465.80 399.87
  L 422.38 397.68
  A 2.98 2.96 22.6 0 0 420.01 398.65
  L 413.92 405.39
  A 0.26 0.25 -55.3 0 0 413.99 405.79
  L 449.24 422.59
  A 0.31 0.31 0.0 0 1 449.37 423.03
  L 440.92 437.68
  A 0.28 0.28 0.0 0 0 441.10 438.10
  C 443.54 438.65 445.11 438.79 447.76 437.87
  Q 454.52 435.52 460.63 432.10
  A 0.34 0.33 -29.2 0 1 461.09 432.22
  L 480.36 465.59
  A 0.95 0.95 0.0 0 0 481.82 465.82
  L 488.18 460.03
  A 2.17 2.16 64.7 0 0 488.86 458.13
  L 483.56 420.02
  A 2.45 2.44 66.4 0 1 484.43 417.79
  Q 498.89 406.06 512.23 394.73
  C 516.56 391.06 521.36 387.64 526.05 383.51
  Q 532.13 378.14 540.77 371.93
  A 0.88 0.88 0.0 0 1 542.08 372.26
  L 577.44 443.64
  A 0.66 0.65 55.4 0 0 578.47 443.83
  L 587.28 435.81
  A 2.47 2.47 0.0 0 0 588.06 433.56
  L 577.42 371.96
  A 1.59 1.59 0.0 0 1 577.89 370.53
  Q 582.43 366.18 585.33 363.08
  C 587.79 360.47 589.10 355.95 585.28 354.05
  C 581.78 352.31 578.16 354.12 575.68 356.75
  A 0.54 0.54 0.0 0 1 574.75 356.47"
/>
<path stroke="#fbd095" vector-effect="non-scaling-stroke" d="
  M 761.05 654.32
  C 761.15 666.55 769.57 675.65 782.04 675.55
  C 794.51 675.45 802.79 666.21 802.69 653.98
  C 802.58 641.75 794.16 632.65 781.69 632.75
  C 769.22 632.85 760.95 642.09 761.05 654.32"
/>
<path stroke="#fbd095" vector-effect="non-scaling-stroke" d="
  M 684.58 634.19
  L 684.72 673.99
  A 0.56 0.56 0.0 0 0 685.28 674.55
  L 699.68 674.50
  A 20.44 18.57 -0.2 0 0 720.06 655.86
  L 720.04 652.08
  A 20.44 18.57 -0.2 0 0 699.54 633.58
  L 685.14 633.63
  A 0.56 0.56 0.0 0 0 684.58 634.19"
/>
</g>
<path fill="#ffffff" d="
  M 1024.00 0.00
  L 1024.00 1024.00
  L 0.00 1024.00
  L 0.00 0.00
  L 1024.00 0.00
  Z
  M 684.51 374.22
  A 172.26 172.26 0.0 0 0 512.25 201.96
  A 172.26 172.26 0.0 0 0 339.99 374.22
  A 172.26 172.26 0.0 0 0 512.25 546.48
  A 172.26 172.26 0.0 0 0 684.51 374.22
  Z
  M 257.69 636.14
  L 262.12 625.10
  A 0.93 0.93 0.0 0 0 261.69 623.93
  Q 245.99 615.88 228.25 618.80
  C 218.35 620.43 208.98 627.24 208.08 637.99
  C 207.25 647.93 211.91 653.79 220.52 657.21
  C 226.77 659.70 233.11 661.03 240.23 662.77
  C 244.35 663.77 248.76 666.11 247.98 671.02
  C 247.14 676.39 237.69 677.06 233.74 676.74
  Q 222.25 675.83 212.66 669.60
  A 0.52 0.51 27.2 0 0 211.90 669.84
  L 207.16 681.65
  A 1.07 1.06 -62.1 0 0 207.55 682.93
  Q 212.03 685.99 217.38 687.60
  C 228.30 690.87 240.62 691.71 251.33 687.64
  Q 262.24 683.49 264.52 673.78
  C 266.67 664.64 263.62 656.47 254.91 652.10
  C 248.56 648.92 239.52 647.50 232.48 645.59
  C 229.42 644.76 225.63 643.18 225.40 639.77
  C 225.01 633.82 230.44 631.83 235.28 631.69
  Q 246.41 631.38 256.62 636.54
  A 0.78 0.78 0.0 0 0 257.69 636.14
  Z
  M 743.63 653.81
  C 743.47 676.09 760.33 689.99 781.64 690.15
  C 802.96 690.30 820.02 676.64 820.18 654.37
  C 820.34 632.09 803.48 618.19 782.17 618.03
  C 760.85 617.88 743.79 631.54 743.63 653.81
  Z
  M 343.03 688.52
  L 313.36 650.59
  A 0.88 0.88 0.0 0 1 313.41 649.45
  L 339.65 621.23
  A 0.98 0.97 50.8 0 1 341.19 621.39
  L 366.98 663.72
  A 1.75 1.66 -61.8 0 1 367.22 664.60
  L 367.22 688.70
  A 0.46 0.46 0.0 0 0 367.68 689.16
  L 383.81 689.16
  A 0.53 0.52 0.0 0 0 384.34 688.64
  L 384.52 664.29
  A 1.47 1.42 61.8 0 1 384.74 663.52
  L 411.42 620.06
  A 0.54 0.54 0.0 0 0 410.96 619.24
  L 395.49 619.24
  A 0.79 0.78 15.8 0 0 394.82 619.61
  L 377.00 648.66
  A 0.40 0.39 44.7 0 1 376.33 648.66
  L 358.74 619.77
  A 1.16 1.15 74.0 0 0 357.76 619.22
  L 322.23 619.22
  A 1.70 1.70 0.0 0 0 320.91 619.85
  C 313.93 628.25 305.84 636.37 294.24 649.24
  Q 293.89 649.63 293.56 649.80
  A 0.45 0.45 0.0 0 1 292.89 649.40
  L 292.89 619.85
  A 0.64 0.63 90.0 0 0 292.26 619.21
  L 276.11 619.21
  A 0.35 0.34 90.0 0 0 275.77 619.56
  L 275.77 688.60
  A 0.57 0.57 0.0 0 0 276.34 689.17
  L 292.55 689.17
  A 0.36 0.35 -90.0 0 0 292.90 688.81
  L 292.90 672.03
  A 1.82 1.81 66.5 0 1 293.38 670.80
  L 300.53 663.11
  A 0.89 0.89 0.0 0 1 301.88 663.15
  L 322.76 688.84
  A 0.84 0.83 -19.3 0 0 323.41 689.15
  L 342.72 689.15
  A 0.39 0.39 0.0 0 0 343.03 688.52
  Z
  M 417.06 688.78
  A 0.31 0.31 0.0 0 0 417.37 689.09
  L 433.20 689.09
  A 0.31 0.31 0.0 0 0 433.51 688.78
  L 433.51 650.53
  A 0.31 0.31 0.0 0 1 434.08 650.37
  L 453.27 681.87
  A 0.31 0.31 0.0 0 0 453.52 682.02
  L 461.50 682.42
  A 0.31 0.31 0.0 0 0 461.78 682.27
  L 480.96 649.03
  A 0.31 0.31 0.0 0 1 481.54 649.19
  L 481.54 688.74
  A 0.31 0.31 0.0 0 0 481.85 689.05
  L 497.33 689.05
  A 0.31 0.31 0.0 0 0 497.64 688.74
  L 497.64 619.59
  A 0.31 0.31 0.0 0 0 497.33 619.28
  L 482.62 619.28
  A 0.31 0.31 0.0 0 0 482.35 619.43
  L 457.78 662.00
  A 0.31 0.31 0.0 0 1 457.24 662.00
  L 432.70 619.49
  A 0.31 0.31 0.0 0 0 432.43 619.34
  L 417.37 619.34
  A 0.31 0.31 0.0 0 0 417.06 619.65
  L 417.06 688.78
  Z
  M 627.26 648.74
  C 619.36 639.85 611.71 629.91 603.63 619.76
  A 1.48 1.46 70.7 0 0 602.48 619.20
  L 588.91 619.20
  A 0.44 0.43 90.0 0 0 588.48 619.64
  L 588.48 688.20
  A 0.80 0.80 0.0 0 0 589.28 689.00
  L 604.79 689.00
  A 0.60 0.60 0.0 0 0 605.39 688.40
  L 605.39 649.12
  A 0.39 0.39 0.0 0 1 606.09 648.88
  C 609.02 652.47 611.83 656.12 614.76 659.42
  C 622.65 668.31 630.31 678.25 638.38 688.40
  A 1.48 1.46 70.7 0 0 639.53 688.96
  L 653.10 688.96
  A 0.44 0.43 -90.0 0 0 653.53 688.52
  L 653.53 619.96
  A 0.80 0.80 0.0 0 0 652.73 619.16
  L 637.22 619.16
  A 0.60 0.60 0.0 0 0 636.62 619.76
  L 636.62 659.04
  A 0.39 0.39 0.0 0 1 635.93 659.28
  C 633.00 655.69 630.18 652.04 627.26 648.74
  Z
  M 543.35 690.30
  Q 548.36 690.30 553.47 689.18
  C 567.12 686.20 574.31 675.17 575.07 661.99
  Q 575.26 658.72 575.15 619.90
  A 0.65 0.64 89.5 0 0 574.51 619.26
  L 558.80 619.26
  A 0.63 0.62 -89.5 0 0 558.18 619.88
  Q 558.06 628.75 558.21 652.25
  C 558.29 662.97 557.93 675.69 543.34 675.70
  C 528.74 675.72 528.36 663.00 528.41 652.28
  Q 528.52 628.78 528.38 619.91
  A 0.63 0.62 89.4 0 0 527.76 619.29
  L 512.05 619.32
  A 0.65 0.64 -89.7 0 0 511.41 619.97
  Q 511.38 658.79 511.57 662.06
  C 512.36 675.23 519.57 686.25 533.23 689.20
  Q 538.34 690.31 543.35 690.30
  Z
  M 667.22 620.22
  L 667.34 688.24
  A 0.82 0.82 0.0 0 0 668.16 689.06
  L 701.32 689.00
  A 36.24 33.06 -0.1 0 0 737.50 655.88
  L 737.50 652.34
  A 36.24 33.06 -0.1 0 0 701.20 619.34
  L 668.04 619.40
  A 0.82 0.82 0.0 0 0 667.22 620.22
  Z"
/>
<path fill="#3c5b9e" d="
  M 684.51 374.22
  A 172.26 172.26 0.0 0 1 512.25 546.48
  A 172.26 172.26 0.0 0 1 339.99 374.22
  A 172.26 172.26 0.0 0 1 512.25 201.96
  A 172.26 172.26 0.0 0 1 684.51 374.22
  Z
  M 574.75 356.47
  L 572.19 341.63
  A 0.91 0.90 61.7 0 1 572.41 340.88
  L 583.53 328.59
  A 0.79 0.70 77.1 0 0 583.70 328.28
  Q 583.96 327.30 582.99 326.33
  A 1.05 1.00 64.0 0 1 583.55 324.56
  C 588.26 324.15 588.83 320.92 591.46 318.23
  Q 597.52 312.02 601.02 306.82
  Q 607.42 297.28 609.69 285.26
  C 610.96 278.52 607.98 275.31 601.25 275.79
  Q 595.76 276.17 593.62 276.88
  C 583.58 280.19 575.11 285.04 567.15 292.54
  C 559.23 300.00 552.77 307.37 546.00 314.02
  A 1.63 1.60 25.1 0 1 544.72 314.47
  L 536.41 313.62
  A 0.55 0.55 0.0 0 1 536.05 312.71
  C 539.66 308.51 537.76 302.09 531.57 302.66
  A 3.17 3.09 29.3 0 0 530.56 302.93
  C 526.68 304.76 523.95 309.21 521.21 311.69
  A 1.48 1.43 -62.3 0 1 520.08 312.06
  L 442.45 304.14
  A 1.87 1.87 0.0 0 0 440.89 304.74
  L 431.50 315.12
  A 0.78 0.77 -58.0 0 0 431.78 316.36
  L 512.11 348.61
  A 0.43 0.43 0.0 0 1 512.27 349.30
  L 466.92 399.41
  A 1.40 1.39 -67.2 0 1 465.80 399.87
  L 422.38 397.68
  A 2.98 2.96 22.6 0 0 420.01 398.65
  L 413.92 405.39
  A 0.26 0.25 -55.3 0 0 413.99 405.79
  L 449.24 422.59
  A 0.31 0.31 0.0 0 1 449.37 423.03
  L 440.92 437.68
  A 0.28 0.28 0.0 0 0 441.10 438.10
  C 443.54 438.65 445.11 438.79 447.76 437.87
  Q 454.52 435.52 460.63 432.10
  A 0.34 0.33 -29.2 0 1 461.09 432.22
  L 480.36 465.59
  A 0.95 0.95 0.0 0 0 481.82 465.82
  L 488.18 460.03
  A 2.17 2.16 64.7 0 0 488.86 458.13
  L 483.56 420.02
  A 2.45 2.44 66.4 0 1 484.43 417.79
  Q 498.89 406.06 512.23 394.73
  C 516.56 391.06 521.36 387.64 526.05 383.51
  Q 532.13 378.14 540.77 371.93
  A 0.88 0.88 0.0 0 1 542.08 372.26
  L 577.44 443.64
  A 0.66 0.65 55.4 0 0 578.47 443.83
  L 587.28 435.81
  A 2.47 2.47 0.0 0 0 588.06 433.56
  L 577.42 371.96
  A 1.59 1.59 0.0 0 1 577.89 370.53
  Q 582.43 366.18 585.33 363.08
  C 587.79 360.47 589.10 355.95 585.28 354.05
  C 581.78 352.31 578.16 354.12 575.68 356.75
  A 0.54 0.54 0.0 0 1 574.75 356.47
  Z"
/>
<path fill="#ffffff" d="
  M 575.68 356.75
  C 578.16 354.12 581.78 352.31 585.28 354.05
  C 589.10 355.95 587.79 360.47 585.33 363.08
  Q 582.43 366.18 577.89 370.53
  A 1.59 1.59 0.0 0 0 577.42 371.96
  L 588.06 433.56
  A 2.47 2.47 0.0 0 1 587.28 435.81
  L 578.47 443.83
  A 0.66 0.65 55.4 0 1 577.44 443.64
  L 542.08 372.26
  A 0.88 0.88 0.0 0 0 540.77 371.93
  Q 532.13 378.14 526.05 383.51
  C 521.36 387.64 516.56 391.06 512.23 394.73
  Q 498.89 406.06 484.43 417.79
  A 2.45 2.44 66.4 0 0 483.56 420.02
  L 488.86 458.13
  A 2.17 2.16 64.7 0 1 488.18 460.03
  L 481.82 465.82
  A 0.95 0.95 0.0 0 1 480.36 465.59
  L 461.09 432.22
  A 0.34 0.33 -29.2 0 0 460.63 432.10
  Q 454.52 435.52 447.76 437.87
  C 445.11 438.79 443.54 438.65 441.10 438.10
  A 0.28 0.28 0.0 0 1 440.92 437.68
  L 449.37 423.03
  A 0.31 0.31 0.0 0 0 449.24 422.59
  L 413.99 405.79
  A 0.26 0.25 -55.3 0 1 413.92 405.39
  L 420.01 398.65
  A 2.98 2.96 22.6 0 1 422.38 397.68
  L 465.80 399.87
  A 1.40 1.39 -67.2 0 0 466.92 399.41
  L 512.27 349.30
  A 0.43 0.43 0.0 0 0 512.11 348.61
  L 431.78 316.36
  A 0.78 0.77 -58.0 0 1 431.50 315.12
  L 440.89 304.74
  A 1.87 1.87 0.0 0 1 442.45 304.14
  L 520.08 312.06
  A 1.48 1.43 -62.3 0 0 521.21 311.69
  C 523.95 309.21 526.68 304.76 530.56 302.93
  A 3.17 3.09 29.3 0 1 531.57 302.66
  C 537.76 302.09 539.66 308.51 536.05 312.71
  A 0.55 0.55 0.0 0 0 536.41 313.62
  L 544.72 314.47
  A 1.63 1.60 25.1 0 0 546.00 314.02
  C 552.77 307.37 559.23 300.00 567.15 292.54
  C 575.11 285.04 583.58 280.19 593.62 276.88
  Q 595.76 276.17 601.25 275.79
  C 607.98 275.31 610.96 278.52 609.69 285.26
  Q 607.42 297.28 601.02 306.82
  Q 597.52 312.02 591.46 318.23
  C 588.83 320.92 588.26 324.15 583.55 324.56
  A 1.05 1.00 64.0 0 0 582.99 326.33
  Q 583.96 327.30 583.70 328.28
  A 0.79 0.70 77.1 0 1 583.53 328.59
  L 572.41 340.88
  A 0.91 0.90 61.7 0 0 572.19 341.63
  L 574.75 356.47
  A 0.54 0.54 0.0 0 0 575.68 356.75
  Z"
/>
<path fill="#3c5b9e" d="
  M 257.69 636.14
  A 0.78 0.78 0.0 0 1 256.62 636.54
  Q 246.41 631.38 235.28 631.69
  C 230.44 631.83 225.01 633.82 225.40 639.77
  C 225.63 643.18 229.42 644.76 232.48 645.59
  C 239.52 647.50 248.56 648.92 254.91 652.10
  C 263.62 656.47 266.67 664.64 264.52 673.78
  Q 262.24 683.49 251.33 687.64
  C 240.62 691.71 228.30 690.87 217.38 687.60
  Q 212.03 685.99 207.55 682.93
  A 1.07 1.06 -62.1 0 1 207.16 681.65
  L 211.90 669.84
  A 0.52 0.51 27.2 0 1 212.66 669.60
  Q 222.25 675.83 233.74 676.74
  C 237.69 677.06 247.14 676.39 247.98 671.02
  C 248.76 666.11 244.35 663.77 240.23 662.77
  C 233.11 661.03 226.77 659.70 220.52 657.21
  C 211.91 653.79 207.25 647.93 208.08 637.99
  C 208.98 627.24 218.35 620.43 228.25 618.80
  Q 245.99 615.88 261.69 623.93
  A 0.93 0.93 0.0 0 1 262.12 625.10
  L 257.69 636.14
  Z"
/>
<path fill="#f6a02a" d="
  M 782.17 618.03
  C 803.48 618.19 820.34 632.09 820.18 654.37
  C 820.02 676.64 802.96 690.30 781.64 690.15
  C 760.33 689.99 743.47 676.09 743.63 653.81
  C 743.79 631.54 760.85 617.88 782.17 618.03
  Z
  M 761.05 654.32
  C 761.15 666.55 769.57 675.65 782.04 675.55
  C 794.51 675.45 802.79 666.21 802.69 653.98
  C 802.58 641.75 794.16 632.65 781.69 632.75
  C 769.22 632.85 760.95 642.09 761.05 654.32
  Z"
/>
<path fill="#3c5b9e" d="
  M 343.03 688.52
  A 0.39 0.39 0.0 0 1 342.72 689.15
  L 323.41 689.15
  A 0.84 0.83 -19.3 0 1 322.76 688.84
  L 301.88 663.15
  A 0.89 0.89 0.0 0 0 300.53 663.11
  L 293.38 670.80
  A 1.82 1.81 66.5 0 0 292.90 672.03
  L 292.90 688.81
  A 0.36 0.35 90.0 0 1 292.55 689.17
  L 276.34 689.17
  A 0.57 0.57 0.0 0 1 275.77 688.60
  L 275.77 619.56
  A 0.35 0.34 90.0 0 1 276.11 619.21
  L 292.26 619.21
  A 0.64 0.63 90.0 0 1 292.89 619.85
  L 292.89 649.40
  A 0.45 0.45 0.0 0 0 293.56 649.80
  Q 293.89 649.63 294.24 649.24
  C 305.84 636.37 313.93 628.25 320.91 619.85
  A 1.70 1.70 0.0 0 1 322.23 619.22
  L 357.76 619.22
  A 1.16 1.15 74.0 0 1 358.74 619.77
  L 376.33 648.66
  A 0.40 0.39 44.7 0 0 377.00 648.66
  L 394.82 619.61
  A 0.79 0.78 15.8 0 1 395.49 619.24
  L 410.96 619.24
  A 0.54 0.54 0.0 0 1 411.42 620.06
  L 384.74 663.52
  A 1.47 1.42 61.8 0 0 384.52 664.29
  L 384.34 688.64
  A 0.53 0.52 0.0 0 1 383.81 689.16
  L 367.68 689.16
  A 0.46 0.46 0.0 0 1 367.22 688.70
  L 367.22 664.60
  A 1.75 1.66 -61.8 0 0 366.98 663.72
  L 341.19 621.39
  A 0.98 0.97 50.8 0 0 339.65 621.23
  L 313.41 649.45
  A 0.88 0.88 0.0 0 0 313.36 650.59
  L 343.03 688.52
  Z"
/>
<path fill="#f6a02a" d="
  M 417.06 688.78
  L 417.06 619.65
  A 0.31 0.31 0.0 0 1 417.37 619.34
  L 432.43 619.34
  A 0.31 0.31 0.0 0 1 432.70 619.49
  L 457.24 662.00
  A 0.31 0.31 0.0 0 0 457.78 662.00
  L 482.35 619.43
  A 0.31 0.31 0.0 0 1 482.62 619.28
  L 497.33 619.28
  A 0.31 0.31 0.0 0 1 497.64 619.59
  L 497.64 688.74
  A 0.31 0.31 0.0 0 1 497.33 689.05
  L 481.85 689.05
  A 0.31 0.31 0.0 0 1 481.54 688.74
  L 481.54 649.19
  A 0.31 0.31 0.0 0 0 480.96 649.03
  L 461.78 682.27
  A 0.31 0.31 0.0 0 1 461.50 682.42
  L 453.52 682.02
  A 0.31 0.31 0.0 0 1 453.27 681.87
  L 434.08 650.37
  A 0.31 0.31 0.0 0 0 433.51 650.53
  L 433.51 688.78
  A 0.31 0.31 0.0 0 1 433.20 689.09
  L 417.37 689.09
  A 0.31 0.31 0.0 0 1 417.06 688.78
  Z"
/>
<path fill="#f6a02a" d="
  M 627.26 648.74
  C 630.18 652.04 633.00 655.69 635.93 659.28
  A 0.39 0.39 0.0 0 0 636.62 659.04
  L 636.62 619.76
  A 0.60 0.60 0.0 0 1 637.22 619.16
  L 652.73 619.16
  A 0.80 0.80 0.0 0 1 653.53 619.96
  L 653.53 688.52
  A 0.44 0.43 90.0 0 1 653.10 688.96
  L 639.53 688.96
  A 1.48 1.46 70.7 0 1 638.38 688.40
  C 630.31 678.25 622.65 668.31 614.76 659.42
  C 611.83 656.12 609.02 652.47 606.09 648.88
  A 0.39 0.39 0.0 0 0 605.39 649.12
  L 605.39 688.40
  A 0.60 0.60 0.0 0 1 604.79 689.00
  L 589.28 689.00
  A 0.80 0.80 0.0 0 1 588.48 688.20
  L 588.48 619.64
  A 0.44 0.43 -90.0 0 1 588.91 619.20
  L 602.48 619.20
  A 1.48 1.46 70.7 0 1 603.63 619.76
  C 611.71 629.91 619.36 639.85 627.26 648.74
  Z"
/>
<path fill="#f6a02a" d="
  M 543.34 675.70
  C 557.93 675.69 558.29 662.97 558.21 652.25
  Q 558.06 628.75 558.18 619.88
  A 0.63 0.62 -89.5 0 1 558.80 619.26
  L 574.51 619.26
  A 0.65 0.64 89.5 0 1 575.15 619.90
  Q 575.26 658.72 575.07 661.99
  C 574.31 675.17 567.12 686.20 553.47 689.18
  Q 548.36 690.30 543.35 690.30
  Q 538.34 690.31 533.23 689.20
  C 519.57 686.25 512.36 675.23 511.57 662.06
  Q 511.38 658.79 511.41 619.97
  A 0.65 0.64 -89.7 0 1 512.05 619.32
  L 527.76 619.29
  A 0.63 0.62 89.4 0 1 528.38 619.91
  Q 528.52 628.78 528.41 652.28
  C 528.36 663.00 528.74 675.72 543.34 675.70
  Z"
/>
<path fill="#f6a02a" d="
  M 667.22 620.22
  A 0.82 0.82 0.0 0 1 668.04 619.40
  L 701.20 619.34
  A 36.24 33.06 -0.1 0 1 737.50 652.34
  L 737.50 655.88
  A 36.24 33.06 -0.1 0 1 701.32 689.00
  L 668.16 689.06
  A 0.82 0.82 0.0 0 1 667.34 688.24
  L 667.22 620.22
  Z
  M 684.58 634.19
  L 684.72 673.99
  A 0.56 0.56 0.0 0 0 685.28 674.55
  L 699.68 674.50
  A 20.44 18.57 -0.2 0 0 720.06 655.86
  L 720.04 652.08
  A 20.44 18.57 -0.2 0 0 699.54 633.58
  L 685.14 633.63
  A 0.56 0.56 0.0 0 0 684.58 634.19
  Z"
/>
<path fill="#ffffff" d="
  M 781.69 632.75
  C 794.16 632.65 802.58 641.75 802.69 653.98
  C 802.79 666.21 794.51 675.45 782.04 675.55
  C 769.57 675.65 761.15 666.55 761.05 654.32
  C 760.95 642.09 769.22 632.85 781.69 632.75
  Z"
/>
<path fill="#ffffff" d="
  M 684.58 634.19
  A 0.56 0.56 0.0 0 1 685.14 633.63
  L 699.54 633.58
  A 20.44 18.57 -0.2 0 1 720.04 652.08
  L 720.06 655.86
  A 20.44 18.57 -0.2 0 1 699.68 674.50
  L 685.28 674.55
  A 0.56 0.56 0.0 0 1 684.72 673.99
  L 684.58 634.19
  Z"
/>
</svg>
