<svg xmlns="http://www.w3.org/2000/svg" viewBox="0 0 800 500" fill="none">
  <defs><linearGradient id="g" x1="0" x2="1" y1="0" y2="1"><stop offset="0%" stop-color="#18306f"/><stop offset="100%" stop-color="#3a60d2"/></linearGradient></defs>
  <rect width="800" height="500" rx="28" fill="url(#g)"/>
  <circle cx="640" cy="110" r="70" fill="#f0ad3d" opacity="0.95"/>
  <path d="M90 375c92-105 180-153 300-163 116-10 210 28 320 106v87H90v-30z" fill="#d8e5ff" opacity="0.9"/>
  <rect x="215" y="205" width="160" height="185" rx="24" fill="#f0ad3d"/>
  <rect x="245" y="175" width="100" height="40" rx="18" stroke="#fff" stroke-width="16"/>
  <rect x="270" y="245" width="20" height="95" rx="10" fill="#c77e13"/>
  <rect x="315" y="245" width="20" height="95" rx="10" fill="#c77e13"/>
  <path d="M430 185l95 42-95 42v-25h-98v-34h98v-25z" fill="#fff" opacity="0.95"/>
  <circle cx="115" cy="120" r="30" fill="#fff" opacity="0.95"/>
  <circle cx="165" cy="150" r="18" fill="#fff" opacity="0.9"/>
</svg>