<svg xmlns="http://www.w3.org/2000/svg" viewBox="0 0 800 500" fill="none">
  <defs>
    <linearGradient id="bg" x1="0" x2="1" y1="0" y2="1">
      <stop offset="0%" stop-color="#0d1b46"/>
      <stop offset="100%" stop-color="#3657c7"/>
    </linearGradient>
  </defs>
  <rect width="800" height="500" rx="28" fill="url(#bg)"/>
  <circle cx="130" cy="110" r="58" fill="#f0ad3d" opacity="0.95"/>
  <path d="M170 80c20-18 55-26 86-10 24 12 39 37 40 66-20-28-52-39-83-35-20 2-33 8-43 16 2-14 1-26 0-37z" fill="#fff" opacity="0.95"/>
  <rect x="240" y="210" width="320" height="150" rx="10" fill="#111"/>
  <rect x="295" y="185" width="18" height="175" fill="#f0ad3d" opacity="0.95"/>
  <rect x="488" y="185" width="18" height="175" fill="#f0ad3d" opacity="0.95"/>
  <rect x="220" y="360" width="360" height="18" rx="9" fill="#dfe6ff" opacity="0.9"/>
  <path d="M130 380c55-70 100-115 160-140M660 380c-55-70-100-115-160-140" stroke="#dfe6ff" stroke-width="10" stroke-linecap="round" opacity="0.75"/>
  <circle cx="400" cy="95" r="22" stroke="#fff" stroke-width="10"/>
  <path d="M413 78a26 26 0 0 1 0 34" stroke="#fff" stroke-width="10" stroke-linecap="round"/>
</svg>